<svg width="28" height="31" viewBox="0 0 28 31" fill="none" xmlns="http://www.w3.org/2000/svg">
<path d="M6.09827 22.7143C6.09827 23.5427 6.76984 24.2143 7.59827 24.2143C8.42669 24.2143 9.09827 23.5427 9.09827 22.7143V7.71429C9.09827 6.88587 8.42669 6.21429 7.59827 6.21429C6.76984 6.21429 6.09827 6.88587 6.09827 7.71429V22.7143ZM12.0983 28.7143C12.0983 29.5427 12.7698 30.2143 13.5983 30.2143C14.4267 30.2143 15.0983 29.5427 15.0983 28.7143V1.71429C15.0983 0.885867 14.4267 0.214294 13.5983 0.214294C12.7698 0.214294 12.0983 0.885867 12.0983 1.71429V28.7143ZM0.0982666 16.7143C0.0982666 17.5427 0.76984 18.2143 1.59827 18.2143C2.42669 18.2143 3.09827 17.5427 3.09827 16.7143V13.7143C3.09827 12.8859 2.42669 12.2143 1.59827 12.2143C0.76984 12.2143 0.0982666 12.8859 0.0982666 13.7143V16.7143ZM18.0983 22.7143C18.0983 23.5427 18.7698 24.2143 19.5983 24.2143C20.4267 24.2143 21.0983 23.5427 21.0983 22.7143V7.71429C21.0983 6.88587 20.4267 6.21429 19.5983 6.21429C18.7698 6.21429 18.0983 6.88587 18.0983 7.71429V22.7143ZM25.5983 12.2143C24.7698 12.2143 24.0983 12.8859 24.0983 13.7143V16.7143C24.0983 17.5427 24.7698 18.2143 25.5983 18.2143C26.4267 18.2143 27.0983 17.5427 27.0983 16.7143V13.7143C27.0983 12.8859 26.4267 12.2143 25.5983 12.2143Z" fill="#2E2E2E"/>
</svg>
